<?xml version="1.0" encoding="UTF-8"?>
<svg width="456" height="383" xmlns="http://www.w3.org/2000/svg" viewBox="0 0 456 383"><style>
            @import url('https://fonts.googleapis.com/css2?family=Hubot+Sans:wght@400&amp;display=swap');
            text { font-family: 'Hubot Sans', sans-serif; }
        </style><rect width="456" height="383" fill="#121212" rx="20" ry="20" /><text x="32" y="36" fill="#C5FFC8" font-size="20" font-weight="400">Bubble chart</text><rect x="32" y="52" width="20" height="10" fill="#FA5A46" rx="2" ry="2" /><text x="60" y="61" fill="#769978" font-size="12" font-weight="400">Category A</text><rect x="92" y="52" width="20" height="10" fill="#FF8C00" rx="2" ry="2" /><text x="120" y="61" fill="#769978" font-size="12" font-weight="400">Category B</text><rect x="152" y="52" width="20" height="10" fill="#FFD700" rx="2" ry="2" /><text x="180" y="61" fill="#769978" font-size="12" font-weight="400">Category C</text><line x1="72" y1="60.0" x2="414" y2="60.0" stroke="#2D3130" stroke-width="1" opacity="0.3" /><text x="62" y="65.0" fill="#769978" font-size="12" font-weight="400" text-anchor="end">1000</text><line x1="72" y1="114.6" x2="414" y2="114.6" stroke="#2D3130" stroke-width="1" opacity="0.3" /><text x="62" y="119.6" fill="#769978" font-size="12" font-weight="400" text-anchor="end">800</text><line x1="72" y1="169.2" x2="414" y2="169.2" stroke="#2D3130" stroke-width="1" opacity="0.3" /><text x="62" y="174.2" fill="#769978" font-size="12" font-weight="400" text-anchor="end">600</text><line x1="72" y1="223.8" x2="414" y2="223.8" stroke="#2D3130" stroke-width="1" opacity="0.3" /><text x="62" y="228.8" fill="#769978" font-size="12" font-weight="400" text-anchor="end">400</text><line x1="72" y1="278.4" x2="414" y2="278.4" stroke="#2D3130" stroke-width="1" opacity="0.3" /><text x="62" y="283.4" fill="#769978" font-size="12" font-weight="400" text-anchor="end">200</text><line x1="72" y1="333.0" x2="414" y2="333.0" stroke="#2D3130" stroke-width="1" opacity="0.3" /><text x="62" y="338.0" fill="#769978" font-size="12" font-weight="400" text-anchor="end">0</text><line x1="72.0" y1="60" x2="72.0" y2="333" stroke="#2D3130" stroke-width="1" opacity="0.3" /><text x="106.2" y="353" fill="#769978" font-size="12" font-weight="400" text-anchor="middle">10</text><line x1="140.4" y1="60" x2="140.4" y2="333" stroke="#2D3130" stroke-width="1" opacity="0.3" /><text x="174.60000000000002" y="353" fill="#769978" font-size="12" font-weight="400" text-anchor="middle">30</text><line x1="208.8" y1="60" x2="208.8" y2="333" stroke="#2D3130" stroke-width="1" opacity="0.3" /><text x="243.0" y="353" fill="#769978" font-size="12" font-weight="400" text-anchor="middle">50</text><line x1="277.2" y1="60" x2="277.2" y2="333" stroke="#2D3130" stroke-width="1" opacity="0.3" /><text x="311.4" y="353" fill="#769978" font-size="12" font-weight="400" text-anchor="middle">70</text><line x1="345.6" y1="60" x2="345.6" y2="333" stroke="#2D3130" stroke-width="1" opacity="0.3" /><text x="379.8" y="353" fill="#769978" font-size="12" font-weight="400" text-anchor="middle">90</text><line x1="414.0" y1="60" x2="414.0" y2="333" stroke="#2D3130" stroke-width="1" opacity="0.3" /><circle cx="72.0" cy="333.0" r="5.0" fill="#FA5A46" opacity="0.7" /><circle cx="120.85714285714286" cy="242.0" r="12.5" fill="#FF8C00" opacity="0.7" /><circle cx="169.71428571428572" cy="287.5" r="8.75" fill="#FFD700" opacity="0.7" /><circle cx="218.57142857142856" cy="151.0" r="16.25" fill="#FA5A46" opacity="0.7" /><circle cx="267.42857142857144" cy="196.5" r="10.25" fill="#FF8C00" opacity="0.7" /><circle cx="316.2857142857143" cy="105.5" r="14.75" fill="#FFD700" opacity="0.7" /><circle cx="365.1428571428571" cy="60.0" r="20.0" fill="#FA5A46" opacity="0.7" /><circle cx="414.0" cy="132.8" r="13.25" fill="#FF8C00" opacity="0.7" /></svg>