<?xml version="1.0" encoding="UTF-8"?>
<svg width="456" height="383" xmlns="http://www.w3.org/2000/svg" viewBox="0 0 456 383"><style>
            @import url('https://fonts.googleapis.com/css2?family=Hubot+Sans:wght@400&amp;display=swap');
            text { font-family: 'Hubot Sans', sans-serif; }
        </style><rect width="456" height="383" fill="#121212" rx="20" ry="20" /><text x="32" y="36" fill="#C5FFC8" font-size="20" font-weight="400">Bubble chart</text><rect x="32" y="52" width="20" height="10" fill="#FA5A46" rx="2" ry="2" /><text x="60" y="61" fill="#769978" font-size="12" font-weight="400">Category A</text><rect x="92" y="52" width="20" height="10" fill="#FF8C00" rx="2" ry="2" /><text x="120" y="61" fill="#769978" font-size="12" font-weight="400">Category B</text><rect x="152" y="52" width="20" height="10" fill="#FFD700" rx="2" ry="2" /><text x="180" y="61" fill="#769978" font-size="12" font-weight="400">Category C</text><circle cx="228" cy="221" r="20.200000000000003" fill="none" stroke="#2D3130" stroke-width="1" opacity="0.3" /><text x="228" y="195.8" fill="#769978" font-size="10" font-weight="400" text-anchor="middle">20</text><circle cx="228" cy="221" r="40.400000000000006" fill="none" stroke="#2D3130" stroke-width="1" opacity="0.3" /><text x="228" y="175.6" fill="#769978" font-size="10" font-weight="400" text-anchor="middle">40</text><circle cx="228" cy="221" r="60.599999999999994" fill="none" stroke="#2D3130" stroke-width="1" opacity="0.3" /><text x="228" y="155.4" fill="#769978" font-size="10" font-weight="400" text-anchor="middle">60</text><circle cx="228" cy="221" r="80.80000000000001" fill="none" stroke="#2D3130" stroke-width="1" opacity="0.3" /><text x="228" y="135.2" fill="#769978" font-size="10" font-weight="400" text-anchor="middle">80</text><circle cx="228" cy="221" r="101.0" fill="none" stroke="#2D3130" stroke-width="1" opacity="0.3" /><text x="228" y="115.0" fill="#769978" font-size="10" font-weight="400" text-anchor="middle">100</text><line x1="228" y1="221" x2="228.0" y2="120.0" stroke="#4A4A4A" stroke-width="1" opacity="0.5" /><text x="228.0" y="105.0" fill="#769978" font-size="12" font-weight="400" text-anchor="middle">00</text><line x1="228" y1="221" x2="299.4177848998413" y2="149.5822151001587" stroke="#4A4A4A" stroke-width="1" opacity="0.5" /><text x="313.55992052357226" y="140.44007947642774" fill="#769978" font-size="12" font-weight="400" text-anchor="start">45</text><line x1="228" y1="221" x2="329.0" y2="221.0" stroke="#4A4A4A" stroke-width="1" opacity="0.5" /><text x="349.0" y="226.0" fill="#769978" font-size="12" font-weight="400" text-anchor="start">90</text><line x1="228" y1="221" x2="299.4177848998413" y2="292.4177848998413" stroke="#4A4A4A" stroke-width="1" opacity="0.5" /><text x="313.55992052357226" y="311.55992052357226" fill="#769978" font-size="12" font-weight="400" text-anchor="middle">135</text><line x1="228" y1="221" x2="228.0" y2="322.0" stroke="#4A4A4A" stroke-width="1" opacity="0.5" /><text x="228.0" y="347.0" fill="#769978" font-size="12" font-weight="400" text-anchor="middle">180</text><line x1="228" y1="221" x2="156.5822151001587" y2="292.4177848998413" stroke="#4A4A4A" stroke-width="1" opacity="0.5" /><text x="142.44007947642774" y="311.55992052357226" fill="#769978" font-size="12" font-weight="400" text-anchor="end">225</text><line x1="228" y1="221" x2="127.0" y2="221.0" stroke="#4A4A4A" stroke-width="1" opacity="0.5" /><text x="107.0" y="226.00000000000003" fill="#769978" font-size="12" font-weight="400" text-anchor="end">270</text><line x1="228" y1="221" x2="156.5822151001587" y2="149.5822151001587" stroke="#4A4A4A" stroke-width="1" opacity="0.5" /><text x="142.44007947642774" y="140.44007947642774" fill="#769978" font-size="12" font-weight="400" text-anchor="middle">315</text><circle cx="228.0" cy="150.3" r="6.666666666666666" fill="#FA5A46" opacity="0.7" /><circle cx="288.7051171648651" cy="160.2948828351349" r="10.833333333333334" fill="#FF8C00" opacity="0.7" /><circle cx="288.6" cy="221.0" r="5.0" fill="#FFD700" opacity="0.7" /><circle cx="295.8468956548492" cy="288.8468956548492" r="15.0" fill="#FA5A46" opacity="0.7" /><circle cx="228.0" cy="296.75" r="8.333333333333332" fill="#FF8C00" opacity="0.7" /><circle cx="170.86577208012696" cy="278.13422791987307" r="10.0" fill="#FFD700" opacity="0.7" /><circle cx="137.1" cy="221.0" r="13.333333333333334" fill="#FA5A46" opacity="0.7" /><circle cx="181.57843981510314" cy="174.57843981510314" r="5.833333333333333" fill="#FF8C00" opacity="0.7" /></svg>