<?xml version="1.0" encoding="UTF-8"?>
<svg width="328" height="328" xmlns="http://www.w3.org/2000/svg" viewBox="0 0 328 328"><style>
            @import url('https://fonts.googleapis.com/css2?family=Hubot+Sans:wght@400&amp;display=swap');
            text { font-family: 'Hubot Sans', sans-serif; }
        </style><rect width="328" height="328" fill="#121212" rx="20" ry="20" /><text x="16" y="32" fill="#FFFFFF" font-size="16" font-weight="400">Pie chart</text><rect x="16" y="36" width="8" height="8" fill="#FFFFFF" rx="1" ry="1" /><text x="28" y="43" fill="#A9A9A9" font-size="10" font-weight="400">One</text><rect x="54" y="36" width="8" height="8" fill="#E0E0E0" rx="1" ry="1" /><text x="66" y="43" fill="#A9A9A9" font-size="10" font-weight="400">Two</text><rect x="92" y="36" width="8" height="8" fill="#C8C8C8" rx="1" ry="1" /><text x="104" y="43" fill="#A9A9A9" font-size="10" font-weight="400">Three</text><rect x="142" y="36" width="8" height="8" fill="#A9A9A9" rx="1" ry="1" /><text x="154" y="43" fill="#A9A9A9" font-size="10" font-weight="400">Four</text><rect x="186" y="36" width="8" height="8" fill="#909090" rx="1" ry="1" /><text x="198" y="43" fill="#A9A9A9" font-size="10" font-weight="400">Five</text><rect x="230" y="36" width="8" height="8" fill="#787878" rx="1" ry="1" /><text x="242" y="43" fill="#A9A9A9" font-size="10" font-weight="400">Six</text><path d="M 164.0,76.0&#10;            A 118.0,118.0 0 0 1 282.0,194.0&#10;            L 228.9,194.0&#10;            A 64.9,64.9 0 0 0 164.0,129.1&#10;            Z" fill="#FFFFFF" stroke="#000000" stroke-width="2" /><path d="M 282.0,194.0&#10;            A 118.0,118.0 0 0 1 200.46400533624382,306.22466892282813&#10;            L 184.0552029349341,255.72356790755546&#10;            A 64.9,64.9 0 0 0 228.9,194.0&#10;            Z" fill="#E0E0E0" stroke="#000000" stroke-width="2" /><path d="M 200.46400533624382,306.22466892282813&#10;            A 118.0,118.0 0 0 1 94.64134022948818,289.4640053362438&#10;            L 125.8527371262185,246.5052029349341&#10;            A 64.9,64.9 0 0 0 184.0552029349341,255.72356790755546&#10;            Z" fill="#C8C8C8" stroke="#000000" stroke-width="2" /><path d="M 94.64134022948818,289.4640053362438&#10;            A 118.0,118.0 0 0 1 46.0,194.00000000000003&#10;            L 99.1,194.0&#10;            A 64.9,64.9 0 0 0 125.8527371262185,246.5052029349341&#10;            Z" fill="#A9A9A9" stroke="#000000" stroke-width="2" /><path d="M 46.0,194.00000000000003&#10;            A 118.0,118.0 0 0 1 83.22344150041474,107.98170196427343&#10;            L 119.57289282522811,146.68993608035038&#10;            A 64.9,64.9 0 0 0 99.1,194.0&#10;            Z" fill="#909090" stroke="#000000" stroke-width="2" /><path d="M 83.22344150041474,107.98170196427343&#10;            A 118.0,118.0 0 0 1 163.99999999999997,76.0&#10;            L 164.0,129.1&#10;            A 64.9,64.9 0 0 0 119.57289282522811,146.68993608035038&#10;            Z" fill="#787878" stroke="#000000" stroke-width="2" /><text x="164" y="186" fill="#FFFFFF" font-size="12" font-weight="400" text-anchor="middle">Total</text><text x="164" y="202" fill="#FFFFFF" font-size="16" font-weight="400" text-anchor="middle">99999</text></svg>