<?xml version="1.0" encoding="UTF-8"?>
<svg width="1002" height="499" xmlns="http://www.w3.org/2000/svg" viewBox="0 0 1002 499"><style>
            @import url('https://fonts.googleapis.com/css2?family=Hubot+Sans:wght@400&amp;display=swap');
            text { font-family: 'Hubot Sans', sans-serif; }
        </style><rect width="1002" height="499" fill="#121212" rx="20" ry="20" /><text x="32" y="36" fill="#C5FFC8" font-size="20" font-weight="400">Area Chart</text><rect x="32" y="50" width="20" height="10" fill="#B0E3B3" rx="2" ry="2" /><text x="60" y="59" fill="#769978" font-size="14" font-weight="400">One</text><rect x="104" y="50" width="20" height="10" fill="#90B892" rx="2" ry="2" /><text x="132" y="59" fill="#769978" font-size="14" font-weight="400">Two</text><rect x="176" y="50" width="20" height="10" fill="#5A715B" rx="2" ry="2" /><text x="204" y="59" fill="#769978" font-size="14" font-weight="400">Three</text><defs><clipPath id="chart-clip"><rect x="32" y="94" width="938" height="345" /></clipPath></defs><line x1="32" y1="94" x2="32" y2="439" stroke="#2D3130" stroke-width="1" stroke-dasharray="4,4" /><text x="42" y="469" fill="#769978" font-size="14" font-weight="400" text-anchor="middle">01</text><line x1="99" y1="94" x2="99" y2="439" stroke="#2D3130" stroke-width="1" stroke-dasharray="4,4" /><text x="109" y="469" fill="#769978" font-size="14" font-weight="400" text-anchor="middle">02</text><line x1="166" y1="94" x2="166" y2="439" stroke="#2D3130" stroke-width="1" stroke-dasharray="4,4" /><text x="176" y="469" fill="#769978" font-size="14" font-weight="400" text-anchor="middle">03</text><line x1="233" y1="94" x2="233" y2="439" stroke="#2D3130" stroke-width="1" stroke-dasharray="4,4" /><text x="243" y="469" fill="#769978" font-size="14" font-weight="400" text-anchor="middle">04</text><line x1="300" y1="94" x2="300" y2="439" stroke="#2D3130" stroke-width="1" stroke-dasharray="4,4" /><text x="310" y="469" fill="#769978" font-size="14" font-weight="400" text-anchor="middle">05</text><line x1="367" y1="94" x2="367" y2="439" stroke="#2D3130" stroke-width="1" stroke-dasharray="4,4" /><text x="377" y="469" fill="#769978" font-size="14" font-weight="400" text-anchor="middle">06</text><line x1="434" y1="94" x2="434" y2="439" stroke="#2D3130" stroke-width="1" stroke-dasharray="4,4" /><text x="444" y="469" fill="#769978" font-size="14" font-weight="400" text-anchor="middle">07</text><line x1="501" y1="94" x2="501" y2="439" stroke="#2D3130" stroke-width="1" stroke-dasharray="4,4" /><text x="511" y="469" fill="#769978" font-size="14" font-weight="400" text-anchor="middle">08</text><line x1="568" y1="94" x2="568" y2="439" stroke="#2D3130" stroke-width="1" stroke-dasharray="4,4" /><text x="578" y="469" fill="#769978" font-size="14" font-weight="400" text-anchor="middle">09</text><line x1="635" y1="94" x2="635" y2="439" stroke="#2D3130" stroke-width="1" stroke-dasharray="4,4" /><text x="645" y="469" fill="#769978" font-size="14" font-weight="400" text-anchor="middle">10</text><line x1="702" y1="94" x2="702" y2="439" stroke="#2D3130" stroke-width="1" stroke-dasharray="4,4" /><text x="712" y="469" fill="#769978" font-size="14" font-weight="400" text-anchor="middle">11</text><line x1="769" y1="94" x2="769" y2="439" stroke="#2D3130" stroke-width="1" stroke-dasharray="4,4" /><text x="779" y="469" fill="#769978" font-size="14" font-weight="400" text-anchor="middle">12</text><line x1="836" y1="94" x2="836" y2="439" stroke="#2D3130" stroke-width="1" stroke-dasharray="4,4" /><text x="846" y="469" fill="#769978" font-size="14" font-weight="400" text-anchor="middle">13</text><line x1="903" y1="94" x2="903" y2="439" stroke="#2D3130" stroke-width="1" stroke-dasharray="4,4" /><text x="913" y="469" fill="#769978" font-size="14" font-weight="400" text-anchor="middle">14</text><line x1="970" y1="94" x2="970" y2="439" stroke="#2D3130" stroke-width="1" stroke-dasharray="4,4" /><path d="M 32,273.4 L 32.0,273.4 L 219.6,241.2 L 407.2,241.2 L 594.8,214.52 L 782.4,195.2 L 970.0,186.00000000000003 L 970.0,94.0 L 782.4,107.80000000000001 L 594.8,136.32 L 407.2,172.2 L 219.6,176.8 L 32.0,218.2 Z" fill="#C5FFC8" opacity="0.4" fill-rule="evenodd" clip-path="url(#chart-clip)" /><path d="M 32,347.0 L 32.0,347.0 L 219.6,328.6 L 407.2,333.2 L 594.8,315.72 L 782.4,305.6 L 970.0,301.0 L 970.0,186.00000000000003 L 782.4,195.2 L 594.8,214.52 L 407.2,241.2 L 219.6,241.2 L 32.0,273.4 Z" fill="#C5FFC8" opacity="0.5" fill-rule="evenodd" clip-path="url(#chart-clip)" /><path d="M 32,439.0 L 32.0,439.0 L 219.6,439.0 L 407.2,439.0 L 594.8,439.0 L 782.4,439.0 L 970.0,439.0 L 970.0,301.0 L 782.4,305.6 L 594.8,315.72 L 407.2,333.2 L 219.6,328.6 L 32.0,347.0 Z" fill="#C5FFC8" fill-rule="evenodd" clip-path="url(#chart-clip)" /></svg>