<?xml version="1.0" encoding="UTF-8"?>
<svg width="1002" height="499" xmlns="http://www.w3.org/2000/svg" viewBox="0 0 1002 499"><style>
            @import url('https://fonts.googleapis.com/css2?family=Hubot+Sans:wght@400&amp;display=swap');
            text { font-family: 'Hubot Sans', sans-serif; }
        </style><rect width="1002" height="499" fill="#121212" rx="20" ry="20" /><defs><linearGradient id="grad-bottom" x1="0%" y1="100%" x2="0%" y2="0%"><stop offset="0%" style="stop-color:#C5FFC8;stop-opacity:1" /><stop offset="100%" style="stop-color:#7FA682;stop-opacity:1" /></linearGradient><linearGradient id="grad-middle" x1="0%" y1="100%" x2="0%" y2="0%"><stop offset="0%" style="stop-color:#90B892;stop-opacity:1" /><stop offset="100%" style="stop-color:#5F7861;stop-opacity:1" /></linearGradient><linearGradient id="grad-top" x1="0%" y1="100%" x2="0%" y2="0%"><stop offset="0%" style="stop-color:#5A715B;stop-opacity:1" /><stop offset="100%" style="stop-color:#3D4D3E;stop-opacity:1" /></linearGradient><linearGradient id="grad-bottom" x1="0%" y1="100%" x2="0%" y2="0%"><stop offset="0%" style="stop-color:#C5FFC8;stop-opacity:1" /><stop offset="100%" style="stop-color:#7FA682;stop-opacity:1" /></linearGradient><linearGradient id="grad-middle" x1="0%" y1="100%" x2="0%" y2="0%"><stop offset="0%" style="stop-color:#90B892;stop-opacity:1" /><stop offset="100%" style="stop-color:#5F7861;stop-opacity:1" /></linearGradient><linearGradient id="grad-top" x1="0%" y1="100%" x2="0%" y2="0%"><stop offset="0%" style="stop-color:#5A715B;stop-opacity:1" /><stop offset="100%" style="stop-color:#3D4D3E;stop-opacity:1" /></linearGradient><clipPath id="chart-clip-gradient"><rect x="32" y="94" width="938" height="349" /></clipPath></defs><text x="32" y="36" fill="#C5FFC8" font-size="20" font-weight="400">Area Chart</text><rect x="32" y="50" width="20" height="10" fill="url(#grad-bottom)" rx="2" ry="2" /><text x="60" y="59" fill="#769978" font-size="14" font-weight="400">One</text><rect x="104" y="50" width="20" height="10" fill="url(#grad-middle)" rx="2" ry="2" /><text x="132" y="59" fill="#769978" font-size="14" font-weight="400">Two</text><rect x="176" y="50" width="20" height="10" fill="url(#grad-top)" rx="2" ry="2" /><text x="204" y="59" fill="#769978" font-size="14" font-weight="400">Three</text><line x1="32" y1="94" x2="32" y2="443" stroke="#2D3130" stroke-width="1" stroke-dasharray="4,4" /><text x="42" y="473" fill="#769978" font-size="14" font-weight="400" text-anchor="middle">01</text><line x1="99" y1="94" x2="99" y2="443" stroke="#2D3130" stroke-width="1" stroke-dasharray="4,4" /><text x="109" y="473" fill="#769978" font-size="14" font-weight="400" text-anchor="middle">02</text><line x1="166" y1="94" x2="166" y2="443" stroke="#2D3130" stroke-width="1" stroke-dasharray="4,4" /><text x="176" y="473" fill="#769978" font-size="14" font-weight="400" text-anchor="middle">03</text><line x1="233" y1="94" x2="233" y2="443" stroke="#2D3130" stroke-width="1" stroke-dasharray="4,4" /><text x="243" y="473" fill="#769978" font-size="14" font-weight="400" text-anchor="middle">04</text><line x1="300" y1="94" x2="300" y2="443" stroke="#2D3130" stroke-width="1" stroke-dasharray="4,4" /><text x="310" y="473" fill="#769978" font-size="14" font-weight="400" text-anchor="middle">05</text><line x1="367" y1="94" x2="367" y2="443" stroke="#2D3130" stroke-width="1" stroke-dasharray="4,4" /><text x="377" y="473" fill="#769978" font-size="14" font-weight="400" text-anchor="middle">06</text><line x1="434" y1="94" x2="434" y2="443" stroke="#2D3130" stroke-width="1" stroke-dasharray="4,4" /><text x="444" y="473" fill="#769978" font-size="14" font-weight="400" text-anchor="middle">07</text><line x1="501" y1="94" x2="501" y2="443" stroke="#2D3130" stroke-width="1" stroke-dasharray="4,4" /><text x="511" y="473" fill="#769978" font-size="14" font-weight="400" text-anchor="middle">08</text><line x1="568" y1="94" x2="568" y2="443" stroke="#2D3130" stroke-width="1" stroke-dasharray="4,4" /><text x="578" y="473" fill="#769978" font-size="14" font-weight="400" text-anchor="middle">09</text><line x1="635" y1="94" x2="635" y2="443" stroke="#2D3130" stroke-width="1" stroke-dasharray="4,4" /><text x="645" y="473" fill="#769978" font-size="14" font-weight="400" text-anchor="middle">10</text><line x1="702" y1="94" x2="702" y2="443" stroke="#2D3130" stroke-width="1" stroke-dasharray="4,4" /><text x="712" y="473" fill="#769978" font-size="14" font-weight="400" text-anchor="middle">11</text><line x1="769" y1="94" x2="769" y2="443" stroke="#2D3130" stroke-width="1" stroke-dasharray="4,4" /><text x="779" y="473" fill="#769978" font-size="14" font-weight="400" text-anchor="middle">12</text><line x1="836" y1="94" x2="836" y2="443" stroke="#2D3130" stroke-width="1" stroke-dasharray="4,4" /><text x="846" y="473" fill="#769978" font-size="14" font-weight="400" text-anchor="middle">13</text><line x1="903" y1="94" x2="903" y2="443" stroke="#2D3130" stroke-width="1" stroke-dasharray="4,4" /><text x="913" y="473" fill="#769978" font-size="14" font-weight="400" text-anchor="middle">14</text><line x1="970" y1="94" x2="970" y2="443" stroke="#2D3130" stroke-width="1" stroke-dasharray="4,4" /><path d="M 32,275.48 L 32.0,275.48 L 219.6,242.90666666666667 L 407.2,242.90666666666667 L 594.8,215.91733333333335 L 782.4,196.37333333333333 L 970.0,187.0666666666667 L 970.0,94.0 L 782.4,107.96000000000004 L 594.8,136.8106666666667 L 407.2,173.10666666666668 L 219.6,177.76 L 32.0,219.64 Z" fill="url(#grad-top)" fill-rule="evenodd" clip-path="url(#chart-clip-gradient)" /><path d="M 32,349.93333333333334 L 32.0,349.93333333333334 L 219.6,331.32 L 407.2,335.97333333333336 L 594.8,318.29066666666665 L 782.4,308.05333333333334 L 970.0,303.4 L 970.0,187.0666666666667 L 782.4,196.37333333333333 L 594.8,215.91733333333335 L 407.2,242.90666666666667 L 219.6,242.90666666666667 L 32.0,275.48 Z" fill="url(#grad-middle)" fill-rule="evenodd" clip-path="url(#chart-clip-gradient)" /><path d="M 32,443.0 L 32.0,443.0 L 219.6,443.0 L 407.2,443.0 L 594.8,443.0 L 782.4,443.0 L 970.0,443.0 L 970.0,303.4 L 782.4,308.05333333333334 L 594.8,318.29066666666665 L 407.2,335.97333333333336 L 219.6,331.32 L 32.0,349.93333333333334 Z" fill="url(#grad-bottom)" fill-rule="evenodd" clip-path="url(#chart-clip-gradient)" /></svg>