<?xml version="1.0" encoding="UTF-8"?>
<svg width="1002" height="499" xmlns="http://www.w3.org/2000/svg" viewBox="0 0 1002 499"><style>
            @import url('https://fonts.googleapis.com/css2?family=Hubot+Sans:wght@400&amp;display=swap');
            text { font-family: 'Hubot Sans', sans-serif; }
        </style><rect width="1002" height="499" fill="#121212" rx="20" ry="20" /><text x="32" y="36" fill="#C5FFC8" font-size="20" font-weight="400">Area Chart</text><rect x="32" y="50" width="20" height="10" fill="#B0E3B3" rx="2" ry="2" /><text x="60" y="59" fill="#769978" font-size="14" font-weight="400">One</text><rect x="104" y="50" width="20" height="10" fill="#90B892" rx="2" ry="2" /><text x="132" y="59" fill="#769978" font-size="14" font-weight="400">Two</text><rect x="176" y="50" width="20" height="10" fill="#5A715B" rx="2" ry="2" /><text x="204" y="59" fill="#769978" font-size="14" font-weight="400">Three</text><defs><clipPath id="chart-clip"><rect x="32" y="94" width="938" height="345" /></clipPath></defs><line x1="32" y1="94" x2="32" y2="439" stroke="#2D3130" stroke-width="1" stroke-dasharray="4,4" /><text x="42" y="469" fill="#769978" font-size="14" font-weight="400" text-anchor="middle">01</text><line x1="99" y1="94" x2="99" y2="439" stroke="#2D3130" stroke-width="1" stroke-dasharray="4,4" /><text x="109" y="469" fill="#769978" font-size="14" font-weight="400" text-anchor="middle">02</text><line x1="166" y1="94" x2="166" y2="439" stroke="#2D3130" stroke-width="1" stroke-dasharray="4,4" /><text x="176" y="469" fill="#769978" font-size="14" font-weight="400" text-anchor="middle">03</text><line x1="233" y1="94" x2="233" y2="439" stroke="#2D3130" stroke-width="1" stroke-dasharray="4,4" /><text x="243" y="469" fill="#769978" font-size="14" font-weight="400" text-anchor="middle">04</text><line x1="300" y1="94" x2="300" y2="439" stroke="#2D3130" stroke-width="1" stroke-dasharray="4,4" /><text x="310" y="469" fill="#769978" font-size="14" font-weight="400" text-anchor="middle">05</text><line x1="367" y1="94" x2="367" y2="439" stroke="#2D3130" stroke-width="1" stroke-dasharray="4,4" /><text x="377" y="469" fill="#769978" font-size="14" font-weight="400" text-anchor="middle">06</text><line x1="434" y1="94" x2="434" y2="439" stroke="#2D3130" stroke-width="1" stroke-dasharray="4,4" /><text x="444" y="469" fill="#769978" font-size="14" font-weight="400" text-anchor="middle">07</text><line x1="501" y1="94" x2="501" y2="439" stroke="#2D3130" stroke-width="1" stroke-dasharray="4,4" /><text x="511" y="469" fill="#769978" font-size="14" font-weight="400" text-anchor="middle">08</text><line x1="568" y1="94" x2="568" y2="439" stroke="#2D3130" stroke-width="1" stroke-dasharray="4,4" /><text x="578" y="469" fill="#769978" font-size="14" font-weight="400" text-anchor="middle">09</text><line x1="635" y1="94" x2="635" y2="439" stroke="#2D3130" stroke-width="1" stroke-dasharray="4,4" /><text x="645" y="469" fill="#769978" font-size="14" font-weight="400" text-anchor="middle">10</text><line x1="702" y1="94" x2="702" y2="439" stroke="#2D3130" stroke-width="1" stroke-dasharray="4,4" /><text x="712" y="469" fill="#769978" font-size="14" font-weight="400" text-anchor="middle">11</text><line x1="769" y1="94" x2="769" y2="439" stroke="#2D3130" stroke-width="1" stroke-dasharray="4,4" /><text x="779" y="469" fill="#769978" font-size="14" font-weight="400" text-anchor="middle">12</text><line x1="836" y1="94" x2="836" y2="439" stroke="#2D3130" stroke-width="1" stroke-dasharray="4,4" /><text x="846" y="469" fill="#769978" font-size="14" font-weight="400" text-anchor="middle">13</text><line x1="903" y1="94" x2="903" y2="439" stroke="#2D3130" stroke-width="1" stroke-dasharray="4,4" /><text x="913" y="469" fill="#769978" font-size="14" font-weight="400" text-anchor="middle">14</text><line x1="970" y1="94" x2="970" y2="439" stroke="#2D3130" stroke-width="1" stroke-dasharray="4,4" /><path d="M 32,342.4 L 32.0,342.4 L 104.15384615384616,320.32 L 176.30769230769232,295.48 L 248.46153846153848,306.52 L 320.61538461538464,273.4 L 392.76923076923083,251.32 L 464.92307692307696,262.36 L 537.0769230769231,240.28 L 609.2307692307693,226.48 L 681.3846153846155,237.52 L 753.5384615384617,209.92 L 825.6923076923077,198.88000000000002 L 897.8461538461539,190.60000000000002 L 970.0000000000001,176.8 L 970.0000000000001,94.0 L 897.8461538461539,110.56 L 825.6923076923077,121.59999999999997 L 753.5384615384617,138.16000000000003 L 681.3846153846155,176.8 L 609.2307692307693,160.24 L 537.0769230769231,179.56 L 464.92307692307696,212.67999999999998 L 392.76923076923083,196.12 L 320.61538461538464,223.72 L 248.46153846153848,270.64 L 176.30769230769232,254.07999999999998 L 104.15384615384616,287.2 L 32.0,314.8 Z" fill="#C5FFC8" opacity="0.4" fill-rule="evenodd" clip-path="url(#chart-clip)" /><path d="M 32,383.8 L 32.0,383.8 L 104.15384615384616,370.0 L 176.30769230769232,356.2 L 248.46153846153848,361.72 L 320.61538461538464,342.4 L 392.76923076923083,328.6 L 464.92307692307696,334.12 L 537.0769230769231,323.08 L 609.2307692307693,314.8 L 681.3846153846155,320.32 L 753.5384615384617,306.52 L 825.6923076923077,301.0 L 897.8461538461539,295.48 L 970.0000000000001,287.2 L 970.0000000000001,176.8 L 897.8461538461539,190.60000000000002 L 825.6923076923077,198.88000000000002 L 753.5384615384617,209.92 L 681.3846153846155,237.52 L 609.2307692307693,226.48 L 537.0769230769231,240.28 L 464.92307692307696,262.36 L 392.76923076923083,251.32 L 320.61538461538464,273.4 L 248.46153846153848,306.52 L 176.30769230769232,295.48 L 104.15384615384616,320.32 L 32.0,342.4 Z" fill="#C5FFC8" opacity="0.5" fill-rule="evenodd" clip-path="url(#chart-clip)" /><path d="M 32,439.0 L 32.0,439.0 L 104.15384615384616,439.0 L 176.30769230769232,439.0 L 248.46153846153848,439.0 L 320.61538461538464,439.0 L 392.76923076923083,439.0 L 464.92307692307696,439.0 L 537.0769230769231,439.0 L 609.2307692307693,439.0 L 681.3846153846155,439.0 L 753.5384615384617,439.0 L 825.6923076923077,439.0 L 897.8461538461539,439.0 L 970.0000000000001,439.0 L 970.0000000000001,287.2 L 897.8461538461539,295.48 L 825.6923076923077,301.0 L 753.5384615384617,306.52 L 681.3846153846155,320.32 L 609.2307692307693,314.8 L 537.0769230769231,323.08 L 464.92307692307696,334.12 L 392.76923076923083,328.6 L 320.61538461538464,342.4 L 248.46153846153848,361.72 L 176.30769230769232,356.2 L 104.15384615384616,370.0 L 32.0,383.8 Z" fill="#C5FFC8" fill-rule="evenodd" clip-path="url(#chart-clip)" /></svg>