<?xml version="1.0" encoding="UTF-8"?>
<svg width="1002" height="499" xmlns="http://www.w3.org/2000/svg" viewBox="0 0 1002 499"><style>
            @import url('https://fonts.googleapis.com/css2?family=Hubot+Sans:wght@400&amp;display=swap');
            text { font-family: 'Hubot Sans', sans-serif; }
        </style><rect width="1002" height="499" fill="#121212" rx="20" ry="20" /><defs><linearGradient id="grad-bottom" x1="0%" y1="100%" x2="0%" y2="0%"><stop offset="0%" style="stop-color:#C5FFC8;stop-opacity:1" /><stop offset="100%" style="stop-color:#7FA682;stop-opacity:1" /></linearGradient><linearGradient id="grad-middle" x1="0%" y1="100%" x2="0%" y2="0%"><stop offset="0%" style="stop-color:#90B892;stop-opacity:1" /><stop offset="100%" style="stop-color:#5F7861;stop-opacity:1" /></linearGradient><linearGradient id="grad-top" x1="0%" y1="100%" x2="0%" y2="0%"><stop offset="0%" style="stop-color:#5A715B;stop-opacity:1" /><stop offset="100%" style="stop-color:#3D4D3E;stop-opacity:1" /></linearGradient><linearGradient id="grad-bottom" x1="0%" y1="100%" x2="0%" y2="0%"><stop offset="0%" style="stop-color:#C5FFC8;stop-opacity:1" /><stop offset="100%" style="stop-color:#7FA682;stop-opacity:1" /></linearGradient><linearGradient id="grad-middle" x1="0%" y1="100%" x2="0%" y2="0%"><stop offset="0%" style="stop-color:#90B892;stop-opacity:1" /><stop offset="100%" style="stop-color:#5F7861;stop-opacity:1" /></linearGradient><linearGradient id="grad-top" x1="0%" y1="100%" x2="0%" y2="0%"><stop offset="0%" style="stop-color:#5A715B;stop-opacity:1" /><stop offset="100%" style="stop-color:#3D4D3E;stop-opacity:1" /></linearGradient><clipPath id="chart-clip-gradient"><rect x="32" y="94" width="938" height="349" /></clipPath></defs><text x="32" y="36" fill="#C5FFC8" font-size="20" font-weight="400">Area Chart</text><rect x="32" y="50" width="20" height="10" fill="url(#grad-bottom)" rx="2" ry="2" /><text x="60" y="59" fill="#769978" font-size="14" font-weight="400">One</text><rect x="104" y="50" width="20" height="10" fill="url(#grad-middle)" rx="2" ry="2" /><text x="132" y="59" fill="#769978" font-size="14" font-weight="400">Two</text><rect x="176" y="50" width="20" height="10" fill="url(#grad-top)" rx="2" ry="2" /><text x="204" y="59" fill="#769978" font-size="14" font-weight="400">Three</text><line x1="32" y1="94" x2="32" y2="443" stroke="#2D3130" stroke-width="1" stroke-dasharray="4,4" /><text x="42" y="473" fill="#769978" font-size="14" font-weight="400" text-anchor="middle">01</text><line x1="99" y1="94" x2="99" y2="443" stroke="#2D3130" stroke-width="1" stroke-dasharray="4,4" /><text x="109" y="473" fill="#769978" font-size="14" font-weight="400" text-anchor="middle">02</text><line x1="166" y1="94" x2="166" y2="443" stroke="#2D3130" stroke-width="1" stroke-dasharray="4,4" /><text x="176" y="473" fill="#769978" font-size="14" font-weight="400" text-anchor="middle">03</text><line x1="233" y1="94" x2="233" y2="443" stroke="#2D3130" stroke-width="1" stroke-dasharray="4,4" /><text x="243" y="473" fill="#769978" font-size="14" font-weight="400" text-anchor="middle">04</text><line x1="300" y1="94" x2="300" y2="443" stroke="#2D3130" stroke-width="1" stroke-dasharray="4,4" /><text x="310" y="473" fill="#769978" font-size="14" font-weight="400" text-anchor="middle">05</text><line x1="367" y1="94" x2="367" y2="443" stroke="#2D3130" stroke-width="1" stroke-dasharray="4,4" /><text x="377" y="473" fill="#769978" font-size="14" font-weight="400" text-anchor="middle">06</text><line x1="434" y1="94" x2="434" y2="443" stroke="#2D3130" stroke-width="1" stroke-dasharray="4,4" /><text x="444" y="473" fill="#769978" font-size="14" font-weight="400" text-anchor="middle">07</text><line x1="501" y1="94" x2="501" y2="443" stroke="#2D3130" stroke-width="1" stroke-dasharray="4,4" /><text x="511" y="473" fill="#769978" font-size="14" font-weight="400" text-anchor="middle">08</text><line x1="568" y1="94" x2="568" y2="443" stroke="#2D3130" stroke-width="1" stroke-dasharray="4,4" /><text x="578" y="473" fill="#769978" font-size="14" font-weight="400" text-anchor="middle">09</text><line x1="635" y1="94" x2="635" y2="443" stroke="#2D3130" stroke-width="1" stroke-dasharray="4,4" /><text x="645" y="473" fill="#769978" font-size="14" font-weight="400" text-anchor="middle">10</text><line x1="702" y1="94" x2="702" y2="443" stroke="#2D3130" stroke-width="1" stroke-dasharray="4,4" /><text x="712" y="473" fill="#769978" font-size="14" font-weight="400" text-anchor="middle">11</text><line x1="769" y1="94" x2="769" y2="443" stroke="#2D3130" stroke-width="1" stroke-dasharray="4,4" /><text x="779" y="473" fill="#769978" font-size="14" font-weight="400" text-anchor="middle">12</text><line x1="836" y1="94" x2="836" y2="443" stroke="#2D3130" stroke-width="1" stroke-dasharray="4,4" /><text x="846" y="473" fill="#769978" font-size="14" font-weight="400" text-anchor="middle">13</text><line x1="903" y1="94" x2="903" y2="443" stroke="#2D3130" stroke-width="1" stroke-dasharray="4,4" /><text x="913" y="473" fill="#769978" font-size="14" font-weight="400" text-anchor="middle">14</text><line x1="970" y1="94" x2="970" y2="443" stroke="#2D3130" stroke-width="1" stroke-dasharray="4,4" /><path d="M 32,345.28 L 32.0,345.28 L 104.15384615384616,322.944 L 176.30769230769232,297.81600000000003 L 248.46153846153848,308.98400000000004 L 320.61538461538464,275.48 L 392.76923076923083,253.14399999999998 L 464.92307692307696,264.312 L 537.0769230769231,241.97600000000003 L 609.2307692307693,228.016 L 681.3846153846155,239.18400000000003 L 753.5384615384617,211.26399999999998 L 825.6923076923077,200.096 L 897.8461538461539,191.72 L 970.0000000000001,177.76 L 970.0000000000001,94.0 L 897.8461538461539,110.75200000000001 L 825.6923076923077,121.91999999999996 L 753.5384615384617,138.67200000000003 L 681.3846153846155,177.76 L 609.2307692307693,161.00799999999998 L 537.0769230769231,180.55200000000002 L 464.92307692307696,214.05599999999998 L 392.76923076923083,197.304 L 320.61538461538464,225.224 L 248.46153846153848,272.688 L 176.30769230769232,255.93599999999998 L 104.15384615384616,289.44 L 32.0,317.36 Z" fill="url(#grad-top)" fill-rule="evenodd" clip-path="url(#chart-clip-gradient)" /><path d="M 32,387.15999999999997 L 32.0,387.15999999999997 L 104.15384615384616,373.2 L 176.30769230769232,359.24 L 248.46153846153848,364.824 L 320.61538461538464,345.28 L 392.76923076923083,331.32 L 464.92307692307696,336.904 L 537.0769230769231,325.736 L 609.2307692307693,317.36 L 681.3846153846155,322.944 L 753.5384615384617,308.98400000000004 L 825.6923076923077,303.4 L 897.8461538461539,297.81600000000003 L 970.0000000000001,289.44 L 970.0000000000001,177.76 L 897.8461538461539,191.72 L 825.6923076923077,200.096 L 753.5384615384617,211.26399999999998 L 681.3846153846155,239.18400000000003 L 609.2307692307693,228.016 L 537.0769230769231,241.97600000000003 L 464.92307692307696,264.312 L 392.76923076923083,253.14399999999998 L 320.61538461538464,275.48 L 248.46153846153848,308.98400000000004 L 176.30769230769232,297.81600000000003 L 104.15384615384616,322.944 L 32.0,345.28 Z" fill="url(#grad-middle)" fill-rule="evenodd" clip-path="url(#chart-clip-gradient)" /><path d="M 32,443.0 L 32.0,443.0 L 104.15384615384616,443.0 L 176.30769230769232,443.0 L 248.46153846153848,443.0 L 320.61538461538464,443.0 L 392.76923076923083,443.0 L 464.92307692307696,443.0 L 537.0769230769231,443.0 L 609.2307692307693,443.0 L 681.3846153846155,443.0 L 753.5384615384617,443.0 L 825.6923076923077,443.0 L 897.8461538461539,443.0 L 970.0000000000001,443.0 L 970.0000000000001,289.44 L 897.8461538461539,297.81600000000003 L 825.6923076923077,303.4 L 753.5384615384617,308.98400000000004 L 681.3846153846155,322.944 L 609.2307692307693,317.36 L 537.0769230769231,325.736 L 464.92307692307696,336.904 L 392.76923076923083,331.32 L 320.61538461538464,345.28 L 248.46153846153848,364.824 L 176.30769230769232,359.24 L 104.15384615384616,373.2 L 32.0,387.15999999999997 Z" fill="url(#grad-bottom)" fill-rule="evenodd" clip-path="url(#chart-clip-gradient)" /></svg>