<?xml version="1.0" encoding="UTF-8"?>
<svg width="1002" height="499" xmlns="http://www.w3.org/2000/svg" xmlns:xlink="http://www.w3.org/1999/xlink" viewBox="0 0 1002 499"><style>
            @import url('https://fonts.googleapis.com/css2?family=Hubot+Sans:wght@400&amp;display=swap');
            text { font-family: 'Hubot Sans', sans-serif; }
        </style><rect width="1002" height="499" fill="#121212" rx="20" ry="20" /><defs><pattern id="pattern-crossing" patternUnits="userSpaceOnUse" width="10" height="10"><rect width="10" height="10" fill="#90B892" />

  
  <line x1="0" y1="10" x2="10" y2="0" stroke="#4F6650" stroke-width="0.5" />

  
  <line x1="0" y1="0" x2="10" y2="10" stroke="#4F6650" stroke-width="0.5" />
</pattern></defs><text x="32" y="36" fill="#FFFFFF" font-size="20" font-weight="400">Bar Chart</text><rect x="32" y="50" width="20" height="10" fill="#FFFFFF" rx="2" ry="2" /><text x="60" y="59" fill="#999999" font-size="14" font-weight="400">One</text><rect x="104" y="50" width="20" height="10" fill="url(#pattern-crossing)" rx="2" ry="2" /><text x="132" y="59" fill="#999999" font-size="14" font-weight="400">Two</text><rect x="176" y="50" width="20" height="10" fill="#4D4D4D" rx="2" ry="2" /><text x="204" y="59" fill="#999999" font-size="14" font-weight="400">Three</text><text x="32" y="114" fill="#999999" font-size="14" font-weight="400">Day Time 1</text><rect x="152" y="94" width="258.3157894736842" height="30" fill="#FFFFFF" /><rect x="410.3157894736842" y="94" width="215.26315789473682" height="30" fill="url(#pattern-crossing)" /><rect x="625.578947368421" y="94" width="172.21052631578945" height="30" fill="#4D4D4D" /><text x="32" y="164" fill="#999999" font-size="14" font-weight="400">Day Time 2</text><rect x="152" y="144" width="301.36842105263156" height="30" fill="#FFFFFF" /><rect x="453.36842105263156" y="144" width="258.3157894736842" height="30" fill="url(#pattern-crossing)" /><rect x="711.6842105263158" y="144" width="215.26315789473682" height="30" fill="#4D4D4D" /><text x="32" y="214" fill="#999999" font-size="14" font-weight="400">Day Time 3</text><rect x="152" y="194" width="215.26315789473682" height="30" fill="#FFFFFF" /><rect x="367.2631578947368" y="194" width="301.36842105263156" height="30" fill="url(#pattern-crossing)" /><rect x="668.6315789473683" y="194" width="215.26315789473682" height="30" fill="#4D4D4D" /><text x="32" y="264" fill="#999999" font-size="14" font-weight="400">Day Time 4</text><rect x="152" y="244" width="172.21052631578945" height="30" fill="#FFFFFF" /><rect x="324.2105263157895" y="244" width="344.4210526315789" height="30" fill="url(#pattern-crossing)" /><rect x="668.6315789473683" y="244" width="258.3157894736842" height="30" fill="#4D4D4D" /><text x="32" y="314" fill="#999999" font-size="14" font-weight="400">Day Time 5</text><rect x="152" y="294" width="301.36842105263156" height="30" fill="#FFFFFF" /><rect x="453.36842105263156" y="294" width="258.3157894736842" height="30" fill="url(#pattern-crossing)" /><rect x="711.6842105263158" y="294" width="215.26315789473682" height="30" fill="#4D4D4D" /><text x="32" y="364" fill="#999999" font-size="14" font-weight="400">Day Time 6</text><rect x="152" y="344" width="258.3157894736842" height="30" fill="#FFFFFF" /><rect x="410.3157894736842" y="344" width="215.26315789473682" height="30" fill="url(#pattern-crossing)" /><rect x="625.578947368421" y="344" width="258.3157894736842" height="30" fill="#4D4D4D" /><text x="32" y="414" fill="#999999" font-size="14" font-weight="400">Day Time 7</text><rect x="152" y="394" width="215.26315789473682" height="30" fill="#FFFFFF" /><rect x="367.2631578947368" y="394" width="344.4210526315789" height="30" fill="url(#pattern-crossing)" /><rect x="711.6842105263157" y="394" width="258.3157894736842" height="30" fill="#4D4D4D" /><text x="152.0" y="454" fill="#999999" font-size="12" font-weight="400" text-anchor="middle">0</text><text x="254.25" y="454" fill="#999999" font-size="12" font-weight="400" text-anchor="middle">11</text><text x="356.5" y="454" fill="#999999" font-size="12" font-weight="400" text-anchor="middle">23</text><text x="458.75" y="454" fill="#999999" font-size="12" font-weight="400" text-anchor="middle">35</text><text x="561.0" y="454" fill="#999999" font-size="12" font-weight="400" text-anchor="middle">47</text><text x="663.25" y="454" fill="#999999" font-size="12" font-weight="400" text-anchor="middle">59</text><text x="765.5" y="454" fill="#999999" font-size="12" font-weight="400" text-anchor="middle">71</text><text x="867.75" y="454" fill="#999999" font-size="12" font-weight="400" text-anchor="middle">83</text><text x="970.0" y="454" fill="#999999" font-size="12" font-weight="400" text-anchor="middle">95</text></svg>