<?xml version="1.0" encoding="UTF-8"?>
<svg width="1002" height="499" xmlns="http://www.w3.org/2000/svg" xmlns:xlink="http://www.w3.org/1999/xlink" viewBox="0 0 1002 499"><style>
            @import url('https://fonts.googleapis.com/css2?family=Hubot+Sans:wght@400&amp;display=swap');
            text { font-family: 'Hubot Sans', sans-serif; }
        </style><rect width="1002" height="499" fill="#121212" rx="20" ry="20" /><defs /><text x="32" y="36" fill="#FFFFFF" font-size="20" font-weight="400">Group Column Chart</text><rect x="32" y="50" width="20" height="10" fill="#FFFFFF" rx="2" ry="2" /><text x="60" y="59" fill="#999999" font-size="14" font-weight="400">One</text><rect x="104" y="50" width="20" height="10" fill="#808080" rx="2" ry="2" /><text x="132" y="59" fill="#999999" font-size="14" font-weight="400">Two</text><rect x="176" y="50" width="20" height="10" fill="#4D4D4D" rx="2" ry="2" /><text x="204" y="59" fill="#999999" font-size="14" font-weight="400">Three</text><text x="22" y="447.0" fill="#999999" font-size="12" font-weight="400" text-anchor="end">0</text><text x="22" y="377.2" fill="#999999" font-size="12" font-weight="400" text-anchor="end">220</text><text x="22" y="307.4" fill="#999999" font-size="12" font-weight="400" text-anchor="end">440</text><text x="22" y="237.6" fill="#999999" font-size="12" font-weight="400" text-anchor="end">660</text><text x="22" y="167.8" fill="#999999" font-size="12" font-weight="400" text-anchor="end">880</text><text x="22" y="98.0" fill="#999999" font-size="12" font-weight="400" text-anchor="end">1100</text><rect x="55.8" y="189.1818181818182" width="40" height="253.8181818181818" fill="#FFFFFF" /><rect x="105.8" y="284.3636363636364" width="40" height="158.63636363636363" fill="#808080" /><rect x="155.8" y="363.6818181818182" width="40" height="79.31818181818181" fill="#4D4D4D" /><text x="125.8" y="463" fill="#999999" font-size="14" font-weight="400" text-anchor="middle">Q1</text><rect x="243.39999999999998" y="268.5" width="40" height="174.5" fill="#FFFFFF" /><rect x="293.4" y="363.6818181818182" width="40" height="79.31818181818181" fill="#808080" /><rect x="343.4" y="331.95454545454544" width="40" height="111.04545454545455" fill="#4D4D4D" /><text x="313.4" y="463" fill="#999999" font-size="14" font-weight="400" text-anchor="middle">Q2</text><rect x="431.0" y="125.72727272727275" width="40" height="317.27272727272725" fill="#FFFFFF" /><rect x="481.0" y="205.04545454545456" width="40" height="237.95454545454544" fill="#808080" /><rect x="531.0" y="347.8181818181818" width="40" height="95.18181818181817" fill="#4D4D4D" /><text x="501.0" y="463" fill="#999999" font-size="14" font-weight="400" text-anchor="middle">Q3</text><rect x="618.5999999999999" y="331.95454545454544" width="40" height="111.04545454545455" fill="#FFFFFF" /><rect x="668.5999999999999" y="268.5" width="40" height="174.5" fill="#808080" /><rect x="718.5999999999999" y="252.63636363636365" width="40" height="190.36363636363635" fill="#4D4D4D" /><text x="688.5999999999999" y="463" fill="#999999" font-size="14" font-weight="400" text-anchor="middle">Q4</text><rect x="806.1999999999999" y="316.0909090909091" width="40" height="126.9090909090909" fill="#FFFFFF" /><rect x="856.1999999999999" y="284.3636363636364" width="40" height="158.63636363636363" fill="#808080" /><rect x="906.1999999999999" y="252.63636363636365" width="40" height="190.36363636363635" fill="#4D4D4D" /><text x="876.1999999999999" y="463" fill="#999999" font-size="14" font-weight="400" text-anchor="middle">Q5</text></svg>