<?xml version="1.0" encoding="UTF-8"?>
<svg width="1002" height="499" xmlns="http://www.w3.org/2000/svg" viewBox="0 0 1002 499"><style>
            @import url('https://fonts.googleapis.com/css2?family=Hubot+Sans:wght@400&amp;display=swap');
            text { font-family: 'Hubot Sans', sans-serif; }
        </style><rect width="1002" height="499" fill="#121212" rx="20" ry="20" /><text x="32" y="36" fill="#C5FFC8" font-size="20" font-weight="400">Area Chart</text><rect x="32" y="50" width="20" height="10" fill="#B0E3B3" rx="2" ry="2" /><text x="60" y="59" fill="#769978" font-size="14" font-weight="400">One</text><rect x="104" y="50" width="20" height="10" fill="#90B892" rx="2" ry="2" /><text x="132" y="59" fill="#769978" font-size="14" font-weight="400">Two</text><rect x="176" y="50" width="20" height="10" fill="#5A715B" rx="2" ry="2" /><text x="204" y="59" fill="#769978" font-size="14" font-weight="400">Three</text><defs><clipPath id="chart-clip"><rect x="32" y="94" width="938" height="345" /></clipPath></defs><path d="M 32,314.5154639175258 L 32.0,314.5154639175258 L 104.15384615384616,305.62371134020617 L 176.30769230769232,289.6185567010309 L 248.46153846153848,271.83505154639175 L 320.61538461538464,259.3865979381443 L 392.76923076923083,254.0515463917526 L 464.92307692307696,259.3865979381443 L 537.0769230769231,271.83505154639175 L 609.2307692307693,293.17525773195877 L 681.3846153846155,314.5154639175258 L 753.5384615384617,332.29896907216494 L 825.6923076923077,346.5257731958763 L 897.8461538461539,355.41752577319585 L 970.0000000000001,360.75257731958766 L 970.0000000000001,284.28350515463916 L 897.8461538461539,275.3917525773196 L 825.6923076923077,259.3865979381443 L 753.5384615384617,232.71134020618558 L 681.3846153846155,200.70103092783506 L 609.2307692307693,163.3556701030928 L 537.0769230769231,126.01030927835052 L 464.92307692307696,102.89175257731961 L 392.76923076923083,94.0 L 320.61538461538464,102.89175257731961 L 248.46153846153848,126.01030927835052 L 176.30769230769232,156.24226804123714 L 104.15384615384616,186.47422680412373 L 32.0,202.47938144329896 Z" fill="#C5FFC8" fill-rule="evenodd" clip-path="url(#chart-clip)" /><path d="M 32,392.7628865979382 L 32.0,392.7628865979382 L 104.15384615384616,389.2061855670103 L 176.30769230769232,382.09278350515467 L 248.46153846153848,374.97938144329896 L 320.61538461538464,369.6443298969072 L 392.76923076923083,367.8659793814433 L 464.92307692307696,369.6443298969072 L 537.0769230769231,374.97938144329896 L 609.2307692307693,383.87113402061857 L 681.3846153846155,392.7628865979382 L 753.5384615384617,399.87628865979383 L 825.6923076923077,405.2113402061856 L 897.8461538461539,408.7680412371134 L 970.0000000000001,410.54639175257734 L 970.0000000000001,360.75257731958766 L 897.8461538461539,355.41752577319585 L 825.6923076923077,346.5257731958763 L 753.5384615384617,332.29896907216494 L 681.3846153846155,314.5154639175258 L 609.2307692307693,293.17525773195877 L 537.0769230769231,271.83505154639175 L 464.92307692307696,259.3865979381443 L 392.76923076923083,254.0515463917526 L 320.61538461538464,259.3865979381443 L 248.46153846153848,271.83505154639175 L 176.30769230769232,289.6185567010309 L 104.15384615384616,305.62371134020617 L 32.0,314.5154639175258 Z" fill="#C5FFC8" opacity="0.5" fill-rule="evenodd" clip-path="url(#chart-clip)" /><path d="M 32,439.0 L 32.0,439.0 L 104.15384615384616,439.0 L 176.30769230769232,439.0 L 248.46153846153848,439.0 L 320.61538461538464,439.0 L 392.76923076923083,439.0 L 464.92307692307696,439.0 L 537.0769230769231,439.0 L 609.2307692307693,439.0 L 681.3846153846155,439.0 L 753.5384615384617,439.0 L 825.6923076923077,439.0 L 897.8461538461539,439.0 L 970.0000000000001,439.0 L 970.0000000000001,410.54639175257734 L 897.8461538461539,408.7680412371134 L 825.6923076923077,405.2113402061856 L 753.5384615384617,399.87628865979383 L 681.3846153846155,392.7628865979382 L 609.2307692307693,383.87113402061857 L 537.0769230769231,374.97938144329896 L 464.92307692307696,369.6443298969072 L 392.76923076923083,367.8659793814433 L 320.61538461538464,369.6443298969072 L 248.46153846153848,374.97938144329896 L 176.30769230769232,382.09278350515467 L 104.15384615384616,389.2061855670103 L 32.0,392.7628865979382 Z" fill="#C5FFC8" opacity="0.4" fill-rule="evenodd" clip-path="url(#chart-clip)" /><line x1="32" y1="94" x2="32" y2="439" stroke="#2D3130" stroke-width="1" stroke-dasharray="4,4" /><text x="42" y="469" fill="#769978" font-size="14" font-weight="400" text-anchor="middle">01</text><line x1="99" y1="94" x2="99" y2="439" stroke="#2D3130" stroke-width="1" stroke-dasharray="4,4" /><text x="109" y="469" fill="#769978" font-size="14" font-weight="400" text-anchor="middle">02</text><line x1="166" y1="94" x2="166" y2="439" stroke="#2D3130" stroke-width="1" stroke-dasharray="4,4" /><text x="176" y="469" fill="#769978" font-size="14" font-weight="400" text-anchor="middle">03</text><line x1="233" y1="94" x2="233" y2="439" stroke="#2D3130" stroke-width="1" stroke-dasharray="4,4" /><text x="243" y="469" fill="#769978" font-size="14" font-weight="400" text-anchor="middle">04</text><line x1="300" y1="94" x2="300" y2="439" stroke="#2D3130" stroke-width="1" stroke-dasharray="4,4" /><text x="310" y="469" fill="#769978" font-size="14" font-weight="400" text-anchor="middle">05</text><line x1="367" y1="94" x2="367" y2="439" stroke="#2D3130" stroke-width="1" stroke-dasharray="4,4" /><text x="377" y="469" fill="#769978" font-size="14" font-weight="400" text-anchor="middle">06</text><line x1="434" y1="94" x2="434" y2="439" stroke="#2D3130" stroke-width="1" stroke-dasharray="4,4" /><text x="444" y="469" fill="#769978" font-size="14" font-weight="400" text-anchor="middle">07</text><line x1="501" y1="94" x2="501" y2="439" stroke="#2D3130" stroke-width="1" stroke-dasharray="4,4" /><text x="511" y="469" fill="#769978" font-size="14" font-weight="400" text-anchor="middle">08</text><line x1="568" y1="94" x2="568" y2="439" stroke="#2D3130" stroke-width="1" stroke-dasharray="4,4" /><text x="578" y="469" fill="#769978" font-size="14" font-weight="400" text-anchor="middle">09</text><line x1="635" y1="94" x2="635" y2="439" stroke="#2D3130" stroke-width="1" stroke-dasharray="4,4" /><text x="645" y="469" fill="#769978" font-size="14" font-weight="400" text-anchor="middle">10</text><line x1="702" y1="94" x2="702" y2="439" stroke="#2D3130" stroke-width="1" stroke-dasharray="4,4" /><text x="712" y="469" fill="#769978" font-size="14" font-weight="400" text-anchor="middle">11</text><line x1="769" y1="94" x2="769" y2="439" stroke="#2D3130" stroke-width="1" stroke-dasharray="4,4" /><text x="779" y="469" fill="#769978" font-size="14" font-weight="400" text-anchor="middle">12</text><line x1="836" y1="94" x2="836" y2="439" stroke="#2D3130" stroke-width="1" stroke-dasharray="4,4" /><text x="846" y="469" fill="#769978" font-size="14" font-weight="400" text-anchor="middle">13</text><line x1="903" y1="94" x2="903" y2="439" stroke="#2D3130" stroke-width="1" stroke-dasharray="4,4" /><text x="913" y="469" fill="#769978" font-size="14" font-weight="400" text-anchor="middle">14</text><line x1="970" y1="94" x2="970" y2="439" stroke="#2D3130" stroke-width="1" stroke-dasharray="4,4" /></svg>