<?xml version="1.0" encoding="UTF-8"?>
<svg width="328" height="328" xmlns="http://www.w3.org/2000/svg" viewBox="0 0 328 328"><style>
            @import url('https://fonts.googleapis.com/css2?family=Hubot+Sans:wght@400&amp;display=swap');
            text { font-family: 'Hubot Sans', sans-serif; }
        </style><rect width="328" height="328" fill="#FFFFFF" rx="20" ry="20" /><text x="16" y="32" fill="#000000" font-size="16" font-weight="400">Radar chart</text><rect x="16" y="36" width="8" height="8" fill="#484848" opacity="0.6" rx="1" ry="1" /><text x="28" y="43" fill="#666666" font-size="10" font-weight="400">One</text><rect x="54" y="36" width="8" height="8" fill="#909090" opacity="0.6" rx="1" ry="1" /><text x="66" y="43" fill="#666666" font-size="10" font-weight="400">Two</text><circle cx="164.0" cy="166.0" r="26.0" fill="none" stroke="#E5E5E5" stroke-width="1" opacity="0.3" /><text x="164.0" y="135.0" fill="#666666" font-size="10" font-weight="400" text-anchor="middle">20</text><circle cx="164.0" cy="166.0" r="52.0" fill="none" stroke="#E5E5E5" stroke-width="1" opacity="0.3" /><text x="164.0" y="109.0" fill="#666666" font-size="10" font-weight="400" text-anchor="middle">40</text><circle cx="164.0" cy="166.0" r="78.0" fill="none" stroke="#E5E5E5" stroke-width="1" opacity="0.3" /><text x="164.0" y="83.0" fill="#666666" font-size="10" font-weight="400" text-anchor="middle">60</text><circle cx="164.0" cy="166.0" r="104.0" fill="none" stroke="#E5E5E5" stroke-width="1" opacity="0.3" /><text x="164.0" y="57.0" fill="#666666" font-size="10" font-weight="400" text-anchor="middle">80</text><circle cx="164.0" cy="166.0" r="130.0" fill="none" stroke="#E5E5E5" stroke-width="1" opacity="0.3" /><text x="164.0" y="31.0" fill="#666666" font-size="10" font-weight="400" text-anchor="middle">100</text><line x1="164.0" y1="166.0" x2="164.0" y2="36.0" stroke="#CCCCCC" stroke-width="1" opacity="0.5" /><text x="164.0" y="20.0" fill="#666666" font-size="12" font-weight="400" text-anchor="middle">0</text><line x1="164.0" y1="166.0" x2="255.92388155425118" y2="74.07611844574883" stroke="#CCCCCC" stroke-width="1" opacity="0.5" /><text x="270.06601717798213" y="63.93398282201788" fill="#666666" font-size="12" font-weight="400" text-anchor="start">45</text><line x1="164.0" y1="166.0" x2="294.0" y2="166.0" stroke="#CCCCCC" stroke-width="1" opacity="0.5" /><text x="314.0" y="170.0" fill="#666666" font-size="12" font-weight="400" text-anchor="start">90</text><line x1="164.0" y1="166.0" x2="255.92388155425118" y2="257.9238815542512" stroke="#CCCCCC" stroke-width="1" opacity="0.5" /><text x="270.06601717798213" y="276.06601717798213" fill="#666666" font-size="12" font-weight="400" text-anchor="start">135</text><line x1="164.0" y1="166.0" x2="164.0" y2="296.0" stroke="#CCCCCC" stroke-width="1" opacity="0.5" /><text x="164.0" y="320.0" fill="#666666" font-size="12" font-weight="400" text-anchor="middle">180</text><line x1="164.0" y1="166.0" x2="72.07611844574883" y2="257.9238815542512" stroke="#CCCCCC" stroke-width="1" opacity="0.5" /><text x="57.93398282201788" y="276.06601717798213" fill="#666666" font-size="12" font-weight="400" text-anchor="end">225</text><line x1="164.0" y1="166.0" x2="34.0" y2="166.00000000000003" stroke="#CCCCCC" stroke-width="1" opacity="0.5" /><text x="14.0" y="170.00000000000003" fill="#666666" font-size="12" font-weight="400" text-anchor="end">270</text><line x1="164.0" y1="166.0" x2="72.0761184457488" y2="74.07611844574883" stroke="#CCCCCC" stroke-width="1" opacity="0.5" /><text x="57.93398282201785" y="63.93398282201788" fill="#666666" font-size="12" font-weight="400" text-anchor="end">315</text><polygon points="164.0,55.5 228.34671708797583,101.65328291202418 281.0,166.0 223.75052301026327,225.75052301026327 164.0,270.0 95.05708883431163,234.94291116568837 73.0,166.0 85.86470067888648,87.8647006788865" fill="#484848" fill-opacity="0.6" stroke="#303030" stroke-width="2" stroke-opacity="0.8" /><polygon points="164.0,88.0 237.53910524340097,92.46089475659906 235.5,166.0 232.94291116568837,234.94291116568837 164.0,250.5 99.65328291202418,230.34671708797583 53.5,166.0 108.84567106744927,110.8456710674493" fill="#909090" fill-opacity="0.6" stroke="#606060" stroke-width="2" stroke-opacity="0.8" /></svg>