<?xml version="1.0" encoding="UTF-8"?>
<svg width="1002" height="580" xmlns="http://www.w3.org/2000/svg" viewBox="0 0 1002 580"><style>
            @import url('https://fonts.googleapis.com/css2?family=Hubot+Sans:wght@400&amp;display=swap');
            text { font-family: 'Hubot Sans', sans-serif; }
        </style><rect width="1002" height="580" fill="#121212" rx="20" ry="20" /><text x="32" y="36" fill="#C5FFC8" font-size="20" font-weight="400">Line chart</text><rect x="32" y="50" width="20" height="10" fill="#FFFFFF" rx="2" ry="2" /><text x="60" y="59" fill="#769978" font-size="14" font-weight="400">One</text><rect x="104" y="50" width="20" height="10" fill="#FA5A46" rx="2" ry="2" /><text x="132" y="59" fill="#769978" font-size="14" font-weight="400">Two</text><rect x="176" y="50" width="20" height="10" fill="#FF8C00" rx="2" ry="2" /><text x="204" y="59" fill="#769978" font-size="14" font-weight="400">Three</text><line x1="32" y1="94" x2="32" y2="524" stroke="#2D3130" stroke-width="1" stroke-dasharray="4,4" /><text x="32" y="547" fill="#769978" font-size="14" font-weight="400" text-anchor="start">01</text><line x1="149" y1="94" x2="149" y2="524" stroke="#2D3130" stroke-width="1" stroke-dasharray="4,4" /><text x="149" y="547" fill="#769978" font-size="14" font-weight="400" text-anchor="start">02</text><line x1="266" y1="94" x2="266" y2="524" stroke="#2D3130" stroke-width="1" stroke-dasharray="4,4" /><text x="266" y="547" fill="#769978" font-size="14" font-weight="400" text-anchor="start">03</text><line x1="383" y1="94" x2="383" y2="524" stroke="#2D3130" stroke-width="1" stroke-dasharray="4,4" /><text x="383" y="547" fill="#769978" font-size="14" font-weight="400" text-anchor="start">04</text><line x1="500" y1="94" x2="500" y2="524" stroke="#2D3130" stroke-width="1" stroke-dasharray="4,4" /><text x="500" y="547" fill="#769978" font-size="14" font-weight="400" text-anchor="start">05</text><line x1="617" y1="94" x2="617" y2="524" stroke="#2D3130" stroke-width="1" stroke-dasharray="4,4" /><text x="617" y="547" fill="#769978" font-size="14" font-weight="400" text-anchor="start">06</text><line x1="734" y1="94" x2="734" y2="524" stroke="#2D3130" stroke-width="1" stroke-dasharray="4,4" /><text x="734" y="547" fill="#769978" font-size="14" font-weight="400" text-anchor="start">07</text><line x1="851" y1="94" x2="851" y2="524" stroke="#2D3130" stroke-width="1" stroke-dasharray="4,4" /><text x="851" y="547" fill="#769978" font-size="14" font-weight="400" text-anchor="start">08</text><line x1="968" y1="94" x2="968" y2="524" stroke="#2D3130" stroke-width="1" stroke-dasharray="4,4" /><text x="968" y="547" fill="#769978" font-size="14" font-weight="400" text-anchor="start">09</text><line x1="32" y1="94" x2="970" y2="94" stroke="#2D3130" stroke-width="1" /><line x1="32" y1="204" x2="970" y2="204" stroke="#2D3130" stroke-width="1" /><line x1="32" y1="314" x2="970" y2="314" stroke="#2D3130" stroke-width="1" /><line x1="32" y1="424" x2="970" y2="424" stroke="#2D3130" stroke-width="1" /><line x1="32" y1="534" x2="970" y2="534" stroke="#2D3130" stroke-width="1" /><path d="M 32.0,332.8888888888889 L 219.6,237.33333333333337 L 407.2,261.22222222222223 L 594.8,170.44444444444446 L 782.4,117.88888888888891 L 970.0,94.0" stroke="#FFFFFF" stroke-width="2.0" fill="none" stroke-linecap="round" stroke-linejoin="round" /><circle cx="32.0" cy="332.8888888888889" r="5.5" fill="#FFFFFF" /><circle cx="219.6" cy="237.33333333333337" r="5.5" fill="#FFFFFF" /><circle cx="407.2" cy="261.22222222222223" r="5.5" fill="#FFFFFF" /><circle cx="594.8" cy="170.44444444444446" r="5.5" fill="#FFFFFF" /><circle cx="782.4" cy="117.88888888888891" r="5.5" fill="#FFFFFF" /><circle cx="970.0" cy="94.0" r="5.5" fill="#FFFFFF" /><path d="M 32.0,428.44444444444446 L 219.6,356.77777777777777 L 407.2,332.8888888888889 L 594.8,285.1111111111111 L 782.4,237.33333333333337 L 970.0,213.44444444444446" stroke="#FA5A46" stroke-width="2.0" fill="none" stroke-linecap="round" stroke-linejoin="round" /><polygon points="32.0,422.06202444444443 37.5,431.58802444444444 26.5,431.58802444444444" fill="#FA5A46" /><polygon points="219.6,350.39535777777775 225.1,359.92135777777776 214.1,359.92135777777776" fill="#FA5A46" /><polygon points="407.2,326.5064688888889 412.7,336.0324688888889 401.7,336.0324688888889" fill="#FA5A46" /><polygon points="594.8,278.72869111111106 600.3,288.2546911111111 589.3,288.2546911111111" fill="#FA5A46" /><polygon points="782.4,230.95091333333338 787.9,240.47691333333336 776.9,240.47691333333336" fill="#FA5A46" /><polygon points="970.0,207.06202444444446 975.5,216.58802444444444 964.5,216.58802444444444" fill="#FA5A46" /><path d="M 32.0,524.0 L 219.6,476.22222222222223 L 407.2,452.33333333333337 L 594.8,404.55555555555554 L 782.4,356.77777777777777 L 970.0,332.8888888888889" stroke="#FF8C00" stroke-width="2.0" fill="none" stroke-linecap="round" stroke-linejoin="round" /><rect x="26.5" y="518.5" width="11" height="11" fill="#FF8C00" rx="2" ry="2" /><rect x="214.1" y="470.72222222222223" width="11" height="11" fill="#FF8C00" rx="2" ry="2" /><rect x="401.7" y="446.83333333333337" width="11" height="11" fill="#FF8C00" rx="2" ry="2" /><rect x="589.3" y="399.05555555555554" width="11" height="11" fill="#FF8C00" rx="2" ry="2" /><rect x="776.9" y="351.27777777777777" width="11" height="11" fill="#FF8C00" rx="2" ry="2" /><rect x="964.5" y="327.3888888888889" width="11" height="11" fill="#FF8C00" rx="2" ry="2" /></svg>