<?xml version="1.0" encoding="UTF-8"?>
<svg width="1002" height="499" xmlns="http://www.w3.org/2000/svg" xmlns:xlink="http://www.w3.org/1999/xlink" viewBox="0 0 1002 499"><style>
            @import url('https://fonts.googleapis.com/css2?family=Hubot+Sans:wght@400&amp;display=swap');
            text { font-family: 'Hubot Sans', sans-serif; }
        </style><rect width="1002" height="499" fill="#121212" rx="20" ry="20" /><defs><pattern id="pattern-crossing" patternUnits="userSpaceOnUse" width="10" height="10"><rect width="10" height="10" fill="#90B892" />

  
  <line x1="0" y1="10" x2="10" y2="0" stroke="#4F6650" stroke-width="0.5" />

  
  <line x1="0" y1="0" x2="10" y2="10" stroke="#4F6650" stroke-width="0.5" />
</pattern></defs><text x="32" y="36" fill="#C5FFC8" font-size="20" font-weight="400">Bar Chart</text><rect x="32" y="50" width="20" height="10" fill="#C5FFC8" rx="2" ry="2" /><text x="60" y="59" fill="#769978" font-size="14" font-weight="400">One</text><rect x="104" y="50" width="20" height="10" fill="url(#pattern-crossing)" rx="2" ry="2" /><text x="132" y="59" fill="#769978" font-size="14" font-weight="400">Two</text><rect x="176" y="50" width="20" height="10" fill="#5A715B" rx="2" ry="2" /><text x="204" y="59" fill="#769978" font-size="14" font-weight="400">Three</text><text x="32" y="114" fill="#769978" font-size="14" font-weight="400">Q1</text><rect x="152" y="94" width="302.30434782608694" height="30" fill="#C5FFC8" /><rect x="454.30434782608694" y="94" width="231.17391304347825" height="30" fill="url(#pattern-crossing)" /><rect x="685.4782608695652" y="94" width="160.04347826086956" height="30" fill="#5A715B" /><text x="32" y="164" fill="#769978" font-size="14" font-weight="400">Q2</text><rect x="152" y="144" width="327.20000000000005" height="30" fill="#C5FFC8" /><rect x="479.20000000000005" y="144" width="248.95652173913044" height="30" fill="url(#pattern-crossing)" /><rect x="728.1565217391305" y="144" width="206.2782608695652" height="30" fill="#5A715B" /><text x="32" y="214" fill="#769978" font-size="14" font-weight="400">Q3</text><rect x="152" y="194" width="277.4086956521739" height="30" fill="#C5FFC8" /><rect x="429.4086956521739" y="194" width="291.6347826086957" height="30" fill="url(#pattern-crossing)" /><rect x="721.0434782608695" y="194" width="184.9391304347826" height="30" fill="#5A715B" /><text x="32" y="264" fill="#769978" font-size="14" font-weight="400">Q4</text><rect x="152" y="244" width="337.8695652173913" height="30" fill="#C5FFC8" /><rect x="489.8695652173913" y="244" width="266.7391304347826" height="30" fill="url(#pattern-crossing)" /><rect x="756.608695652174" y="244" width="213.3913043478261" height="30" fill="#5A715B" /><text x="152.0" y="304" fill="#769978" font-size="12" font-weight="400" text-anchor="middle">0</text><text x="254.25" y="304" fill="#769978" font-size="12" font-weight="400" text-anchor="middle">28</text><text x="356.5" y="304" fill="#769978" font-size="12" font-weight="400" text-anchor="middle">57</text><text x="458.75" y="304" fill="#769978" font-size="12" font-weight="400" text-anchor="middle">86</text><text x="561.0" y="304" fill="#769978" font-size="12" font-weight="400" text-anchor="middle">115</text><text x="663.25" y="304" fill="#769978" font-size="12" font-weight="400" text-anchor="middle">143</text><text x="765.5" y="304" fill="#769978" font-size="12" font-weight="400" text-anchor="middle">172</text><text x="867.75" y="304" fill="#769978" font-size="12" font-weight="400" text-anchor="middle">201</text><text x="970.0" y="304" fill="#769978" font-size="12" font-weight="400" text-anchor="middle">230</text></svg>